<svg version="1.1" id="Layer_1" xmlns="http://www.w3.org/2000/svg" xmlns:xlink="http://www.w3.org/1999/xlink" x="0px" y="0px"
	 width="100%" viewBox="0 0 456 456" enable-background="new 0 0 456 456" xml:space="preserve">
<path fill="#000000" opacity="1.000000" stroke="none" 
	d="
M314.000000,457.000000 
	C209.361862,457.000000 105.223740,457.000000 1.042804,457.000000 
	C1.042804,305.070190 1.042804,153.140350 1.042804,1.105263 
	C152.888123,1.105263 304.776337,1.105263 456.832275,1.105263 
	C456.832275,152.999847 456.832275,304.999908 456.832275,457.000000 
	C409.473663,457.000000 361.986847,457.000000 314.000000,457.000000 
M42.609207,70.999840 
	C46.073883,71.027802 49.895870,70.322746 50.023746,75.753113 
	C50.273254,86.348740 50.963173,96.941978 50.928249,107.534416 
	C50.879593,122.291862 50.464100,137.053131 49.848949,151.797897 
	C49.763298,153.850922 47.721302,155.869446 46.439846,157.808014 
	C45.658489,158.990036 44.599503,159.988541 43.120090,161.700165 
	C66.980476,161.700165 89.397987,161.700165 111.859528,161.700165 
	C112.589249,153.992859 113.291389,146.576828 113.997360,139.120392 
	C108.993698,139.088531 108.993698,139.088531 107.937180,143.228333 
	C104.932800,155.000504 104.932800,155.000458 92.386253,155.000778 
	C90.887360,155.000824 89.384880,154.933868 87.890182,155.013306 
	C80.371010,155.412903 72.853867,155.850815 65.246414,156.280319 
	C63.613159,142.731644 63.170498,129.998856 65.169983,117.000015 
	C72.408760,117.000015 79.238243,116.994705 86.067711,117.001511 
	C92.844238,117.008263 93.424675,117.621361 94.041100,124.508049 
	C94.196609,126.245399 94.836792,127.939369 95.283386,129.772888 
	C96.818016,129.772888 98.224869,129.772888 99.753677,129.772888 
	C99.753677,119.128723 99.753677,108.706703 99.753677,98.016792 
	C98.078224,98.095459 96.665062,98.161819 95.505089,98.216286 
	C94.954796,100.469543 94.098862,102.359680 94.132370,104.233917 
	C94.177177,106.740349 93.397156,108.778229 91.005394,108.845398 
	C82.403641,109.086983 73.790977,108.940254 65.384605,108.940254 
	C65.384605,96.564606 65.384605,84.841949 65.384605,72.849701 
	C77.814957,73.806328 90.107536,71.148895 102.180405,75.560493 
	C102.180405,79.423874 102.180405,83.037735 102.180405,86.718002 
	C104.235100,86.718002 105.962738,86.718002 107.589668,86.718002 
	C108.370018,79.716263 109.117477,73.009613 109.864075,66.310669 
	C85.643875,66.310669 61.911842,66.310669 38.230858,66.310669 
	C37.576031,69.529778 38.534073,71.170525 42.609207,70.999840 
M69.390694,289.028717 
	C66.037376,284.938660 62.053459,281.210144 59.458813,276.685059 
	C53.615791,266.494659 53.171581,255.160889 55.207581,243.947083 
	C56.669884,235.893036 60.170063,228.182175 66.717392,222.978485 
	C81.156937,211.502243 97.204521,211.324173 113.679749,218.026596 
	C117.244286,219.476700 120.815308,221.375153 120.153893,226.628784 
	C119.868744,228.893753 121.014000,231.338791 121.563896,233.961761 
	C122.947144,233.896439 124.352203,233.830078 125.685982,233.767075 
	C126.769447,226.732452 127.800194,220.040039 128.817200,213.436829 
	C127.331886,212.667496 126.100868,211.809189 124.735367,211.356400 
	C109.303543,206.239456 93.377869,205.047043 77.644493,208.395462 
	C61.784771,211.770782 49.334656,220.851212 42.482651,236.115921 
	C38.702526,244.537186 38.145527,253.385803 38.769794,262.726013 
	C39.749710,277.387238 46.370750,288.981293 57.784321,296.679596 
	C78.786751,310.845520 101.628311,310.398102 124.534355,300.951508 
	C126.370697,300.194183 127.698639,297.882843 128.901367,296.055725 
	C129.443588,295.232025 129.096802,293.823151 129.153381,292.679810 
	C127.982201,292.743103 126.703842,292.527222 125.661911,292.927216 
	C123.414070,293.790100 121.287079,294.968079 119.111618,296.019196 
	C110.892006,299.990540 102.066063,299.280792 93.421814,298.889954 
	C84.656822,298.493652 76.549408,295.695038 69.390694,289.028717 
M386.962036,256.993439 
	C387.295013,259.515594 387.627960,262.037720 387.905487,264.139862 
	C380.073578,265.814209 372.639038,267.466888 365.176758,268.983276 
	C355.322815,270.985657 348.985199,276.367737 347.111969,286.637451 
	C345.961273,292.945892 348.574921,300.954407 353.344360,304.070068 
	C361.700470,309.528748 372.356689,308.103577 381.101166,300.428528 
	C383.147919,298.632080 385.348907,297.011322 388.240204,294.701599 
	C387.861481,298.626099 387.573486,301.610138 387.266327,304.793243 
	C394.454224,304.793243 401.560242,304.793243 408.705719,304.793243 
	C409.308411,302.008606 409.098907,299.804138 405.656555,300.036591 
	C400.770599,300.366516 399.894684,297.683624 399.946777,293.537872 
	C400.097351,281.555847 399.984833,269.570679 400.005768,257.586792 
	C400.018341,250.400085 396.774078,245.170242 390.459045,241.915192 
	C380.481934,236.772537 370.547058,238.026505 360.838074,242.661377 
	C352.299042,246.737717 351.624939,248.418091 353.621704,257.828400 
	C356.780823,258.608185 358.471649,257.573608 359.105347,254.185074 
	C359.769287,250.634811 362.165710,248.172470 365.683350,247.160233 
	C374.888184,244.511475 382.270752,247.738861 386.962036,256.993439 
M242.481506,241.920502 
	C233.580185,245.854599 226.985443,251.623352 224.584503,261.703552 
	C222.636810,269.880829 222.261261,277.921906 224.502075,285.926086 
	C226.961334,294.710663 232.336319,301.753235 240.953842,304.786621 
	C252.050919,308.692810 263.386108,308.321991 274.238525,302.978943 
	C277.915985,301.168427 280.566986,298.731232 280.798981,293.201752 
	C270.959137,297.788239 261.307190,301.869141 250.985199,297.406982 
	C242.320908,293.661438 236.155304,284.302124 237.639084,272.000031 
	C241.573730,272.000031 245.551132,272.092346 249.522903,271.981964 
	C259.600586,271.701965 269.679199,271.399719 279.747101,270.899109 
	C280.853973,270.844086 282.757568,269.516327 282.831451,268.653778 
	C283.585449,259.852051 281.999390,251.258942 275.300110,245.275253 
	C265.784851,236.776382 254.490860,237.205338 242.481506,241.920502 
M179.866119,247.634399 
	C178.791885,248.683441 177.717651,249.732498 176.643417,250.781540 
	C176.983795,251.278397 177.324188,251.775269 177.664566,252.272125 
	C180.730057,252.272125 183.795547,252.272125 187.000076,252.272125 
	C187.000076,266.563110 187.021759,280.374084 186.986816,294.184906 
	C186.976395,298.302094 188.262619,301.681091 191.636734,304.272675 
	C199.513824,310.322906 213.082062,307.359497 218.460968,297.312653 
	C216.064728,297.483673 214.357941,297.599243 212.652176,297.728241 
	C203.056320,298.454041 199.946716,299.041687 199.281570,289.241150 
	C198.426376,276.640289 199.508820,263.907928 199.761703,250.970627 
	C206.270172,250.970627 211.892929,250.970627 217.645859,250.970627 
	C218.121262,248.602173 218.543976,246.496094 219.072464,243.863113 
	C212.461731,243.863113 206.376984,243.863113 199.727371,243.863113 
	C200.176422,235.030319 200.601105,226.676682 201.076538,217.324997 
	C195.955399,219.232590 191.539246,220.877579 187.015427,222.562668 
	C187.015427,227.207703 186.726013,231.717834 187.080017,236.176880 
	C187.682617,243.767059 187.852646,243.753555 179.866119,247.634399 
M296.587280,248.999466 
	C298.022339,249.082993 299.457428,249.166519 302.000000,249.314514 
	C302.000000,256.113495 302.125885,262.534332 301.968781,268.948242 
	C301.762360,277.374084 301.006744,285.799133 301.128265,294.215302 
	C301.195679,298.883057 299.833160,300.652985 295.189606,300.038696 
	C291.658417,299.571564 290.377777,301.270599 291.342957,304.767090 
	C303.595032,304.767090 315.705658,304.767090 327.770447,304.767090 
	C328.888184,299.105225 325.008392,300.028015 321.949524,300.014954 
	C318.540985,300.000397 314.977783,300.397095 314.992096,295.302521 
	C315.022583,284.452942 314.836334,273.599609 315.076050,262.755249 
	C315.180756,258.018494 317.700287,253.978378 322.210449,252.506912 
	C326.485626,251.112122 330.973541,251.271988 334.117676,255.841614 
	C334.811920,256.850586 337.027863,256.812592 338.512573,257.247742 
	C339.062286,252.081421 339.746155,247.685562 339.872498,243.273773 
	C339.912323,241.883560 338.588226,239.328079 337.665833,239.220917 
	C332.058624,238.569351 326.408722,238.495361 322.152740,243.326080 
	C319.985107,245.786392 317.732483,248.171844 314.847229,251.324356 
	C314.847229,246.578537 314.847229,242.945999 314.847229,239.000580 
	C306.901550,240.427612 299.258972,241.688522 291.703888,243.347900 
	C291.026245,243.496750 290.915192,246.225204 290.541016,247.755646 
	C292.255341,248.170319 293.969696,248.585007 296.587280,248.999466 
M159.487793,239.154816 
	C158.825562,239.104721 158.135101,238.906876 157.505447,239.027252 
	C150.664398,240.334946 143.817749,241.624084 137.018768,243.127090 
	C136.210129,243.305862 135.110367,244.759247 135.157440,245.562515 
	C135.216507,246.570480 136.128448,248.061005 137.014023,248.372849 
	C138.660019,248.952393 140.577988,249.100739 142.338715,248.941650 
	C145.923752,248.617767 146.993118,250.507324 146.994675,253.589157 
	C147.001190,266.567444 147.141968,279.548035 146.935516,292.523041 
	C146.833328,298.945129 145.942505,299.697876 139.656494,299.946777 
	C136.045380,300.089813 135.581390,301.808624 136.343658,304.772583 
	C147.939850,304.772583 159.370743,304.772583 170.737411,304.772583 
	C171.677567,300.844543 169.881348,299.628052 166.501984,300.009644 
	C161.456680,300.579285 159.869324,298.277466 159.919495,293.367065 
	C160.101349,275.566284 159.953568,257.762146 159.487793,239.154816 
M154.289185,133.000000 
	C161.086380,132.988129 162.214218,131.672073 162.599716,123.155396 
	C150.299652,123.155396 138.005661,123.155396 125.310936,123.155396 
	C124.462135,126.227379 123.597504,129.356644 122.590828,133.000000 
	C133.398621,133.000000 143.368393,133.000000 154.289185,133.000000 
M157.881195,210.342239 
	C153.563919,208.038864 148.144943,208.643875 145.847153,211.685791 
	C143.815704,214.375122 144.179337,221.342743 147.218109,222.395477 
	C150.446686,223.513962 155.095505,223.776260 157.875610,222.204330 
	C162.317795,219.692642 161.987167,215.792969 157.881195,210.342239 
z"/>
<path fill="#EABF12" opacity="1.000000" stroke="none" 
	d="
M42.169216,70.999222 
	C38.534073,71.170525 37.576031,69.529778 38.230858,66.310669 
	C61.911842,66.310669 85.643875,66.310669 109.864075,66.310669 
	C109.117477,73.009613 108.370018,79.716263 107.589668,86.718002 
	C105.962738,86.718002 104.235100,86.718002 102.180405,86.718002 
	C102.180405,83.037735 102.180405,79.423874 102.180405,75.560493 
	C90.107536,71.148895 77.814957,73.806328 65.384605,72.849701 
	C65.384605,84.841949 65.384605,96.564606 65.384605,108.940254 
	C73.790977,108.940254 82.403641,109.086983 91.005394,108.845398 
	C93.397156,108.778229 94.177177,106.740349 94.132370,104.233917 
	C94.098862,102.359680 94.954796,100.469543 95.505089,98.216286 
	C96.665062,98.161819 98.078224,98.095459 99.753677,98.016792 
	C99.753677,108.706703 99.753677,119.128723 99.753677,129.772888 
	C98.224869,129.772888 96.818016,129.772888 95.283386,129.772888 
	C94.836792,127.939369 94.196609,126.245399 94.041100,124.508049 
	C93.424675,117.621361 92.844238,117.008263 86.067711,117.001511 
	C79.238243,116.994705 72.408760,117.000015 65.169983,117.000015 
	C63.170498,129.998856 63.613159,142.731644 65.246414,156.280319 
	C72.853867,155.850815 80.371010,155.412903 87.890182,155.013306 
	C89.384880,154.933868 90.887360,155.000824 92.386253,155.000778 
	C104.932800,155.000458 104.932800,155.000504 107.937180,143.228333 
	C108.993698,139.088531 108.993698,139.088531 113.997360,139.120392 
	C113.291389,146.576828 112.589249,153.992859 111.859528,161.700165 
	C89.397987,161.700165 66.980476,161.700165 43.120090,161.700165 
	C44.599503,159.988541 45.658489,158.990036 46.439846,157.808014 
	C47.721302,155.869446 49.763298,153.850922 49.848949,151.797897 
	C50.464100,137.053131 50.879593,122.291862 50.928249,107.534416 
	C50.963173,96.941978 50.273254,86.348740 50.023746,75.753113 
	C49.895870,70.322746 46.073883,71.027802 42.169216,70.999222 
z"/>
<path fill="#EABF12" opacity="1.000000" stroke="none" 
	d="
M69.688629,289.240204 
	C76.549408,295.695038 84.656822,298.493652 93.421814,298.889954 
	C102.066063,299.280792 110.892006,299.990540 119.111618,296.019196 
	C121.287079,294.968079 123.414070,293.790100 125.661911,292.927216 
	C126.703842,292.527222 127.982201,292.743103 129.153381,292.679810 
	C129.096802,293.823151 129.443588,295.232025 128.901367,296.055725 
	C127.698639,297.882843 126.370697,300.194183 124.534355,300.951508 
	C101.628311,310.398102 78.786751,310.845520 57.784321,296.679596 
	C46.370750,288.981293 39.749710,277.387238 38.769794,262.726013 
	C38.145527,253.385803 38.702526,244.537186 42.482651,236.115921 
	C49.334656,220.851212 61.784771,211.770782 77.644493,208.395462 
	C93.377869,205.047043 109.303543,206.239456 124.735367,211.356400 
	C126.100868,211.809189 127.331886,212.667496 128.817200,213.436829 
	C127.800194,220.040039 126.769447,226.732452 125.685982,233.767075 
	C124.352203,233.830078 122.947144,233.896439 121.563896,233.961761 
	C121.014000,231.338791 119.868744,228.893753 120.153893,226.628784 
	C120.815308,221.375153 117.244286,219.476700 113.679749,218.026596 
	C97.204521,211.324173 81.156937,211.502243 66.717392,222.978485 
	C60.170063,228.182175 56.669884,235.893036 55.207581,243.947083 
	C53.171581,255.160889 53.615791,266.494659 59.458813,276.685059 
	C62.053459,281.210144 66.037376,284.938660 69.688629,289.240204 
z"/>
<path fill="#EABF12" opacity="1.000000" stroke="none" 
	d="
M386.838531,256.608154 
	C382.270752,247.738861 374.888184,244.511475 365.683350,247.160233 
	C362.165710,248.172470 359.769287,250.634811 359.105347,254.185074 
	C358.471649,257.573608 356.780823,258.608185 353.621704,257.828400 
	C351.624939,248.418091 352.299042,246.737717 360.838074,242.661377 
	C370.547058,238.026505 380.481934,236.772537 390.459045,241.915192 
	C396.774078,245.170242 400.018341,250.400085 400.005768,257.586792 
	C399.984833,269.570679 400.097351,281.555847 399.946777,293.537872 
	C399.894684,297.683624 400.770599,300.366516 405.656555,300.036591 
	C409.098907,299.804138 409.308411,302.008606 408.705719,304.793243 
	C401.560242,304.793243 394.454224,304.793243 387.266327,304.793243 
	C387.573486,301.610138 387.861481,298.626099 388.240204,294.701599 
	C385.348907,297.011322 383.147919,298.632080 381.101166,300.428528 
	C372.356689,308.103577 361.700470,309.528748 353.344360,304.070068 
	C348.574921,300.954407 345.961273,292.945892 347.111969,286.637451 
	C348.985199,276.367737 355.322815,270.985657 365.176758,268.983276 
	C372.639038,267.466888 380.073578,265.814209 387.905487,264.139862 
	C387.627960,262.037720 387.295013,259.515594 386.838531,256.608154 
M369.734467,274.057190 
	C369.331207,274.351776 368.954285,274.854492 368.520660,274.909454 
	C362.780151,275.636658 359.168091,283.899872 360.053375,289.673950 
	C360.968353,295.641479 364.627441,298.174744 371.682068,297.994751 
	C377.617706,297.843292 387.645142,290.717194 387.921448,286.049683 
	C388.233459,280.778503 387.993347,275.474640 387.993347,269.269348 
	C381.706604,270.939056 376.116272,272.423798 369.734467,274.057190 
z"/>
<path fill="#EABF12" opacity="1.000000" stroke="none" 
	d="
M242.782257,241.666443 
	C254.490860,237.205338 265.784851,236.776382 275.300110,245.275253 
	C281.999390,251.258942 283.585449,259.852051 282.831451,268.653778 
	C282.757568,269.516327 280.853973,270.844086 279.747101,270.899109 
	C269.679199,271.399719 259.600586,271.701965 249.522903,271.981964 
	C245.551132,272.092346 241.573730,272.000031 237.639084,272.000031 
	C236.155304,284.302124 242.320908,293.661438 250.985199,297.406982 
	C261.307190,301.869141 270.959137,297.788239 280.798981,293.201752 
	C280.566986,298.731232 277.915985,301.168427 274.238525,302.978943 
	C263.386108,308.321991 252.050919,308.692810 240.953842,304.786621 
	C232.336319,301.753235 226.961334,294.710663 224.502075,285.926086 
	C222.261261,277.921906 222.636810,269.880829 224.584503,261.703552 
	C226.985443,251.623352 233.580185,245.854599 242.782257,241.666443 
M243.589966,265.999908 
	C252.003006,265.999908 260.416046,265.999908 268.648071,265.999908 
	C269.972290,257.551086 268.550690,250.202499 261.395508,246.435760 
	C255.903625,243.544617 249.021011,243.362930 243.813232,247.902420 
	C238.561722,252.480026 237.003922,258.879639 237.108612,265.999908 
	C239.336624,265.999908 240.985382,265.999908 243.589966,265.999908 
z"/>
<path fill="#EABF12" opacity="1.000000" stroke="none" 
	d="
M180.167114,247.365143 
	C187.852646,243.753555 187.682617,243.767059 187.080017,236.176880 
	C186.726013,231.717834 187.015427,227.207703 187.015427,222.562668 
	C191.539246,220.877579 195.955399,219.232590 201.076538,217.324997 
	C200.601105,226.676682 200.176422,235.030319 199.727371,243.863113 
	C206.376984,243.863113 212.461731,243.863113 219.072464,243.863113 
	C218.543976,246.496094 218.121262,248.602173 217.645859,250.970627 
	C211.892929,250.970627 206.270172,250.970627 199.761703,250.970627 
	C199.508820,263.907928 198.426376,276.640289 199.281570,289.241150 
	C199.946716,299.041687 203.056320,298.454041 212.652176,297.728241 
	C214.357941,297.599243 216.064728,297.483673 218.460968,297.312653 
	C213.082062,307.359497 199.513824,310.322906 191.636734,304.272675 
	C188.262619,301.681091 186.976395,298.302094 186.986816,294.184906 
	C187.021759,280.374084 187.000076,266.563110 187.000076,252.272125 
	C183.795547,252.272125 180.730057,252.272125 177.664566,252.272125 
	C177.324188,251.775269 176.983795,251.278397 176.643417,250.781540 
	C177.717651,249.732498 178.791885,248.683441 180.167114,247.365143 
z"/>
<path fill="#EABF12" opacity="1.000000" stroke="none" 
	d="
M296.135651,248.999573 
	C293.969696,248.585007 292.255341,248.170319 290.541016,247.755646 
	C290.915192,246.225204 291.026245,243.496750 291.703888,243.347900 
	C299.258972,241.688522 306.901550,240.427612 314.847229,239.000580 
	C314.847229,242.945999 314.847229,246.578537 314.847229,251.324356 
	C317.732483,248.171844 319.985107,245.786392 322.152740,243.326080 
	C326.408722,238.495361 332.058624,238.569351 337.665833,239.220917 
	C338.588226,239.328079 339.912323,241.883560 339.872498,243.273773 
	C339.746155,247.685562 339.062286,252.081421 338.512573,257.247742 
	C337.027863,256.812592 334.811920,256.850586 334.117676,255.841614 
	C330.973541,251.271988 326.485626,251.112122 322.210449,252.506912 
	C317.700287,253.978378 315.180756,258.018494 315.076050,262.755249 
	C314.836334,273.599609 315.022583,284.452942 314.992096,295.302521 
	C314.977783,300.397095 318.540985,300.000397 321.949524,300.014954 
	C325.008392,300.028015 328.888184,299.105225 327.770447,304.767090 
	C315.705658,304.767090 303.595032,304.767090 291.342957,304.767090 
	C290.377777,301.270599 291.658417,299.571564 295.189606,300.038696 
	C299.833160,300.652985 301.195679,298.883057 301.128265,294.215302 
	C301.006744,285.799133 301.762360,277.374084 301.968781,268.948242 
	C302.125885,262.534332 302.000000,256.113495 302.000000,249.314514 
	C299.457428,249.166519 298.022339,249.082993 296.135651,248.999573 
z"/>
<path fill="#EABF12" opacity="1.000000" stroke="none" 
	d="
M159.708969,239.557037 
	C159.953568,257.762146 160.101349,275.566284 159.919495,293.367065 
	C159.869324,298.277466 161.456680,300.579285 166.501984,300.009644 
	C169.881348,299.628052 171.677567,300.844543 170.737411,304.772583 
	C159.370743,304.772583 147.939850,304.772583 136.343658,304.772583 
	C135.581390,301.808624 136.045380,300.089813 139.656494,299.946777 
	C145.942505,299.697876 146.833328,298.945129 146.935516,292.523041 
	C147.141968,279.548035 147.001190,266.567444 146.994675,253.589157 
	C146.993118,250.507324 145.923752,248.617767 142.338715,248.941650 
	C140.577988,249.100739 138.660019,248.952393 137.014023,248.372849 
	C136.128448,248.061005 135.216507,246.570480 135.157440,245.562515 
	C135.110367,244.759247 136.210129,243.305862 137.018768,243.127090 
	C143.817749,241.624084 150.664398,240.334946 157.505447,239.027252 
	C158.135101,238.906876 158.825562,239.104721 159.708969,239.557037 
z"/>
<path fill="#EABF12" opacity="1.000000" stroke="none" 
	d="
M153.813675,133.000000 
	C143.368393,133.000000 133.398621,133.000000 122.590828,133.000000 
	C123.597504,129.356644 124.462135,126.227379 125.310936,123.155396 
	C138.005661,123.155396 150.299652,123.155396 162.599716,123.155396 
	C162.214218,131.672073 161.086380,132.988129 153.813675,133.000000 
z"/>
<path fill="#EABE12" opacity="1.000000" stroke="none" 
	d="
M158.152451,210.644287 
	C161.987167,215.792969 162.317795,219.692642 157.875610,222.204330 
	C155.095505,223.776260 150.446686,223.513962 147.218109,222.395477 
	C144.179337,221.342743 143.815704,214.375122 145.847153,211.685791 
	C148.144943,208.643875 153.563919,208.038864 158.152451,210.644287 
z"/>
<path fill="#000000" opacity="1.000000" stroke="none" 
	d="
M370.130188,273.982849 
	C376.116272,272.423798 381.706604,270.939056 387.993347,269.269348 
	C387.993347,275.474640 388.233459,280.778503 387.921448,286.049683 
	C387.645142,290.717194 377.617706,297.843292 371.682068,297.994751 
	C364.627441,298.174744 360.968353,295.641479 360.053375,289.673950 
	C359.168091,283.899872 362.780151,275.636658 368.520660,274.909454 
	C368.954285,274.854492 369.331207,274.351776 370.130188,273.982849 
z"/>
<path fill="#000000" opacity="1.000000" stroke="none" 
	d="
M243.112061,265.999908 
	C240.985382,265.999908 239.336624,265.999908 237.108612,265.999908 
	C237.003922,258.879639 238.561722,252.480026 243.813232,247.902420 
	C249.021011,243.362930 255.903625,243.544617 261.395508,246.435760 
	C268.550690,250.202499 269.972290,257.551086 268.648071,265.999908 
	C260.416046,265.999908 252.003006,265.999908 243.112061,265.999908 
z"/>
</svg>